<svg width="758" height="373" viewBox="0 0 758 373" fill="none" xmlns="http://www.w3.org/2000/svg">
<path d="M365.134 53.1208H175.342C176.245 49.7849 181.25 38.321 206.646 42.7218C202.544 39.0599 199.813 33.4312 200.945 28.0525C201.282 26.4334 201.978 24.8578 203.153 23.6951C204.209 22.6411 205.591 21.9783 206.994 21.4784C217.004 17.8817 234.522 31.66 234.522 31.66C213.066 -2.02518 271.56 -16.1512 271.952 26.466C271.952 26.466 280.526 11.1555 289.916 15.3933C293.735 17.5666 291.374 24.1298 289.666 27.0093C317.074 13.72 342.013 21.8696 330.392 37.0388C357.322 37.6039 365.134 53.1208 365.134 53.1208V53.1208Z" fill="white"/>
<path d="M70.1804 169.617C75.3923 160.457 83.9445 158.088 98.6769 163.108C95.7065 156.393 104.607 143.169 118.839 157.176C114.563 134.693 148.336 132.096 146.661 153.85C155.104 143.343 177.399 149.319 168.727 161.859C181.751 158.632 187.028 161.652 195.591 169.617H70.1804V169.617Z" fill="white"/>
<path d="M160.044 53.1208H100.222C97.9806 45.4058 99.3407 36.6911 123.779 43.7107C131.428 29.5194 146.345 43.6889 160.044 53.1208V53.1208Z" fill="white"/>
<path d="M699.911 123.327H640.089C637.848 115.612 639.208 106.898 663.646 113.917C669.565 102.931 679.129 104.909 688.084 117.188C703.719 105.007 714.35 117.079 699.911 123.327Z" fill="white"/>
<path d="M553.609 120.806H603.911V70.572H553.609V120.806Z" fill="white"/>
<path d="M553.62 102.529L603.922 97.281V70.5828H553.62V102.529Z" fill="#9BB8CC"/>
<path d="M498.792 40.2552L608.437 39.0273V94.9883H570.126L498.792 40.2552Z" fill="#133B53"/>
<path d="M339.782 70.5828H289.481V120.817H339.782V70.5828Z" fill="white"/>
<path d="M339.771 102.529L289.481 97.281V70.5828H339.771V102.529Z" fill="#9BB8CC"/>
<path d="M394.599 40.2552L284.954 39.0273V94.9883H323.265L394.599 40.2552Z" fill="#133B53"/>
<path d="M618.154 371.783H274.65V139.909L446.402 7.39581L618.154 139.909V371.783Z" fill="white"/>
<path d="M446.217 7.39581L274.454 139.909V159.24L309.131 132.422V125.099L421.137 34.0397V45.8187L439.134 31.8991L617.969 163.185V139.909L446.217 7.39581Z" fill="#9BB8CC"/>
<path d="M309.131 371.783L421.137 371.338V45.8187L309.131 132.422V371.783Z" fill="#7BBFBA"/>
<path d="M309.131 125.099V132.422L421.137 45.8187V34.0398L309.131 125.099Z" fill="#479DA3"/>
<path d="M446.413 1.51721L248.21 148.309L261.115 162.446L446.413 19.479L631.722 162.446L644.3 145.407L446.413 1.51721Z" fill="#133B53"/>
<path d="M400.931 259.372H328.869V351.931H400.931V259.372Z" fill="white"/>
<path d="M362.207 263.545H333.558V347.019H362.207V263.545Z" fill="#133B53"/>
<path d="M396.09 263.545H367.441V347.019H396.09V263.545Z" fill="#133B53"/>
<path d="M400.931 350.681H328.869V351.92H400.931V350.681Z" fill="#9BB8CC"/>
<path d="M411.714 351.931H318.554V362.134H411.714V351.931Z" fill="white"/>
<path d="M416.262 361.841H314.006V371.783H416.262V361.841Z" fill="white"/>
<path d="M411.714 360.602H318.554V361.841H411.714V360.602Z" fill="#9BB8CC"/>
<path d="M400.932 127.576H328.869V190.578H400.932V127.576Z" fill="white"/>
<path d="M362.207 131.76H333.558V185.678H362.207V131.76Z" fill="#133B53"/>
<path d="M396.09 131.76H367.441V185.678H396.09V131.76Z" fill="#133B53"/>
<path d="M406.013 196.435L323.787 200.282V195.294H406.013V196.435Z" fill="#479DA3"/>
<path d="M325.974 190.578H328.869V127.576H327.302L325.974 190.578Z" fill="#479DA3"/>
<path d="M406.013 190.578H323.787V195.283H406.013V190.578Z" fill="#133B53"/>
<path d="M533.262 127.576H488.913V158.719H533.262V127.576Z" fill="#133B53"/>
<path d="M485.007 127.576H441.473V158.719H485.007V127.576Z" fill="#133B53"/>
<path d="M533.262 163.391H436.555V127.576H435.01L433.606 166.444L533.262 164.684V163.391Z" fill="#9BB8CC"/>
<path d="M454.334 217.157L452.669 371.783H457.696V352.191V217.157H454.334Z" fill="#9BB8CC"/>
<path d="M274.639 216.092H28.2789V371.783H274.639V216.092Z" fill="#F43D4F"/>
<path d="M274.65 219.178L28.2789 227.925V216.092H274.65V219.178Z" fill="#B72E41"/>
<path d="M274.65 216.092H24.4706V199.825L274.65 202.944V216.092Z" fill="#133B53"/>
<path d="M232.749 263.545H70.1804V371.783H232.749V263.545Z" fill="white"/>
<path d="M232.749 271.129H70.1804V272.966H232.749V271.129Z" fill="#E1ECEF"/>
<path d="M232.749 277.334H70.1804V279.17H232.749V277.334Z" fill="#E1ECEF"/>
<path d="M232.749 283.528H70.1804V285.364H232.749V283.528Z" fill="#E1ECEF"/>
<path d="M232.749 289.732H70.1804V291.569H232.749V289.732Z" fill="#E1ECEF"/>
<path d="M232.749 295.937H70.1804V297.773H232.749V295.937Z" fill="#E1ECEF"/>
<path d="M232.749 302.131H70.1804V303.967H232.749V302.131Z" fill="#E1ECEF"/>
<path d="M232.749 308.335H70.1804V310.172H232.749V308.335Z" fill="#E1ECEF"/>
<path d="M232.749 314.529H70.1804V316.365H232.749V314.529Z" fill="#E1ECEF"/>
<path d="M232.749 320.734H70.1804V322.57H232.749V320.734Z" fill="#E1ECEF"/>
<path d="M232.749 326.927H70.1804V328.764H232.749V326.927Z" fill="#E1ECEF"/>
<path d="M232.749 333.132H70.1804V334.968H232.749V333.132Z" fill="#E1ECEF"/>
<path d="M232.749 339.326H70.1804V341.162H232.749V339.326Z" fill="#E1ECEF"/>
<path d="M232.749 345.53H70.1804V347.367H232.749V345.53Z" fill="#E1ECEF"/>
<path d="M232.749 351.724H70.1804V353.56H232.749V351.724Z" fill="#E1ECEF"/>
<path d="M232.749 357.929H70.1804V359.765H232.749V357.929Z" fill="#E1ECEF"/>
<path d="M232.749 364.122H70.1804V365.959H232.749V364.122Z" fill="#E1ECEF"/>
<path d="M235.24 266.62H65.5996V257.275L235.24 259.068V266.62Z" fill="#133B53"/>
<path d="M274.476 371.783H269.362L271.549 216.092H274.476V371.783Z" fill="#B72E41"/>
<path d="M688.954 216.092H457.696V371.783H688.954V216.092Z" fill="#F43D4F"/>
<path d="M688.954 352.191H457.696V371.783H688.954V352.191Z" fill="#B72E41"/>
<path d="M688.954 234.163L457.696 244.996V227.925H688.954V234.163Z" fill="#B72E41"/>
<path d="M633.093 259.372H513.351V334.718H633.093V259.372Z" fill="white"/>
<path d="M538.452 263.545H517.953V330.013H538.452V263.545Z" fill="#133B53"/>
<path d="M605.543 263.545H541.673V330.013H605.543V263.545Z" fill="#133B53"/>
<path d="M629.252 263.545H608.753V330.013H629.252V263.545Z" fill="#133B53"/>
<path d="M633.093 258.405H513.351H511.577L510.108 334.718H513.351V259.372H633.093V258.405Z" fill="#B72E41"/>
<path d="M513.351 334.077H633.093V335.859L510.108 341.303V334.077H513.351Z" fill="#B72E41"/>
<path d="M695.94 227.925H456.325V216.679L695.94 216.212V227.925Z" fill="white"/>
<path d="M695.94 219.385L456.325 222.068V216.679L695.94 216.212V219.385Z" fill="#9BB8CC"/>
<path d="M702.968 212.963L642.722 182.418H510.272L446.141 214.321V217.863L702.968 216.842V212.963Z" fill="#133B53"/>
<path d="M469.458 224.492H460.884V232.924H469.458V224.492Z" fill="white"/>
<path d="M485.431 224.492H476.857V232.924H485.431V224.492Z" fill="white"/>
<path d="M501.404 224.492H492.83V232.924H501.404V224.492Z" fill="white"/>
<path d="M517.366 224.492H508.792V232.924H517.366V224.492Z" fill="white"/>
<path d="M533.339 224.492H524.765V232.924H533.339V224.492Z" fill="white"/>
<path d="M565.273 224.492H556.699V232.924H565.273V224.492Z" fill="white"/>
<path d="M549.311 224.492H540.737V232.924H549.311V224.492Z" fill="white"/>
<path d="M581.246 224.492H572.672V232.924H581.246V224.492Z" fill="white"/>
<path d="M597.219 224.492H588.645V232.924H597.219V224.492Z" fill="white"/>
<path d="M613.181 224.492H604.607V232.924H613.181V224.492Z" fill="white"/>
<path d="M629.154 224.492H620.58V232.924H629.154V224.492Z" fill="white"/>
<path d="M645.127 224.492H636.553V232.924H645.127V224.492Z" fill="white"/>
<path d="M677.062 224.492H668.488V232.924H677.062V224.492Z" fill="white"/>
<path d="M661.089 224.492H652.515V232.924H661.089V224.492Z" fill="white"/>
<path d="M693.034 224.492H684.46V232.924H693.034V224.492Z" fill="white"/>
<path d="M469.458 227.925H460.884V229.566H469.458V227.925Z" fill="#9BB8CC"/>
<path d="M485.431 227.925H476.857V229.566H485.431V227.925Z" fill="#9BB8CC"/>
<path d="M501.404 227.925H492.83V229.566H501.404V227.925Z" fill="#9BB8CC"/>
<path d="M517.366 227.925H508.792V229.566H517.366V227.925Z" fill="#9BB8CC"/>
<path d="M533.339 227.925H524.765V229.566H533.339V227.925Z" fill="#9BB8CC"/>
<path d="M565.273 227.925H556.699V229.566H565.273V227.925Z" fill="#9BB8CC"/>
<path d="M549.311 227.925H540.737V229.566H549.311V227.925Z" fill="#9BB8CC"/>
<path d="M581.246 227.925H572.672V229.566H581.246V227.925Z" fill="#9BB8CC"/>
<path d="M597.219 227.925H588.645V229.566H597.219V227.925Z" fill="#9BB8CC"/>
<path d="M613.181 227.925H604.607V229.566H613.181V227.925Z" fill="#9BB8CC"/>
<path d="M629.154 227.925H620.58V229.566H629.154V227.925Z" fill="#9BB8CC"/>
<path d="M645.127 227.925H636.553V229.566H645.127V227.925Z" fill="#9BB8CC"/>
<path d="M677.062 227.925H668.488V229.566H677.062V227.925Z" fill="#9BB8CC"/>
<path d="M661.089 227.925H652.515V229.566H661.089V227.925Z" fill="#9BB8CC"/>
<path d="M693.034 227.925H684.46V229.566H693.034V227.925Z" fill="#9BB8CC"/>
<path d="M22.0661 313.595H19.2915V371.783H22.0661V313.595Z" fill="#133B53"/>
<path d="M27.3867 296.23H9.50974C13.8838 296.23 17.4526 299.805 17.4526 304.163V315.844L15.8097 316.539H34.198C34.8291 316.539 35.3405 316.029 35.3405 315.398V304.163C35.3405 299.794 31.7607 296.23 27.3976 296.23H27.3867Z" fill="#133B53"/>
<path d="M9.6947 296.23C5.40771 296.328 1.93677 299.86 1.93677 304.163V315.703C1.93677 316.17 2.31759 316.539 2.77458 316.539H16.6148C17.0827 316.539 17.4526 316.159 17.4526 315.703V304.163C17.4526 299.86 13.9817 296.328 9.6947 296.23V296.23Z" fill="white"/>
<path d="M24.2313 293.666V290.656H19.1174V301.164C19.1174 302.087 19.8681 302.837 20.793 302.837C21.7179 302.837 22.4686 302.087 22.4686 301.164C22.4686 300.24 21.7179 299.49 20.793 299.49H20.7712V294.057L24.2313 293.666V293.666Z" fill="#F43D4F"/>
<path d="M326.138 351.931H328.869V259.372H327.302L326.138 351.931Z" fill="#479DA3"/>
<path d="M708.877 370.74L710.313 349.985L698.812 336.685L699.519 336.12L706.298 341.912L707.288 336.12L708.365 336.392L708.18 343.618L710.933 346.302L711.989 325.091L706.352 318.137L706.983 317.593L712.815 322.255L713.196 311.16H714.709L715.721 324.798L717.19 338.348L724.784 330.122L725.502 330.589L722.728 334.947L727.559 334.881V335.685L722.282 336.49L717.102 344.596L718.278 370.74H708.877Z" fill="#994F61"/>
<path d="M757.981 295.665C758.068 293.079 757.883 290.417 756.795 288.07C755.707 285.723 753.585 283.723 751.018 283.365C749.538 283.147 747.873 283.571 746.959 284.756C749.853 281.159 752.497 277.225 753.629 272.759C754.771 268.293 754.206 263.186 751.224 259.666C748.363 256.275 743.575 254.808 739.179 255.46C734.784 256.101 730.812 258.666 727.918 262.034C728.233 255.102 729.833 248.115 728.56 241.291C727.287 234.467 721.857 227.632 714.915 227.947C710.204 228.154 706.254 231.522 703.251 235.151C697.028 242.682 693.187 252.146 692.414 261.871C690.608 259.394 688.769 256.884 686.354 254.982C683.938 253.092 680.837 251.864 677.801 252.353C672.818 253.168 669.652 258.231 668.433 263.121C667.138 268.348 667.323 273.933 668.966 279.062C671.676 287.537 678.052 294.264 684.221 300.675C681.381 299.414 677.812 301.12 676.43 303.902C674.559 307.683 676.343 312.041 678.933 315.04C681.109 317.572 684.003 319.397 686.985 320.897C703.719 329.285 724.077 328.079 740.964 320.777C747.231 318.061 751.605 313.584 754.945 307.586L754.978 307.52C756.969 303.924 757.818 299.794 757.959 295.687L757.981 295.665Z" fill="#479DA3"/>
<path d="M704.241 330.861C703.458 329.959 701.151 329.6 701.195 331.252C700.509 326.145 693.84 328.079 696.962 332.958C691.827 327.634 687.278 334.447 693.927 337.478C688.28 337.587 691.435 345.639 696.386 342.129C694.384 343.335 695.657 345.965 697.811 345.628C703.556 344.683 709.421 335.544 704.241 330.861V330.861Z" fill="#479DA3"/>
<path d="M694.22 315.811C693.753 314.453 693.437 313.008 693.633 311.584C693.84 310.161 694.645 308.759 695.95 308.161C696.701 307.814 697.648 307.77 698.333 308.248C696.222 306.803 694.188 305.13 692.86 302.935C691.544 300.74 691.022 297.936 692.044 295.589C693.024 293.329 695.33 291.786 697.778 291.427C700.216 291.069 702.74 291.797 704.818 293.133C703.545 289.493 701.576 286.038 701.162 282.202C700.749 278.366 702.544 273.868 706.287 272.922C708.822 272.281 711.466 273.444 713.642 274.889C718.158 277.899 721.716 282.322 723.685 287.374C724.251 285.766 724.828 284.136 725.807 282.745C726.786 281.354 728.244 280.203 729.931 279.985C732.705 279.627 735.208 281.811 736.633 284.223C738.157 286.798 738.951 289.798 738.897 292.786C738.81 297.73 736.503 302.315 734.24 306.716C735.545 305.597 737.721 305.923 738.897 307.183C740.496 308.9 740.246 311.497 739.354 313.508C738.603 315.203 737.351 316.637 736.002 317.908C728.451 325.037 717.429 327.644 707.277 326.449C703.513 326.004 700.466 324.319 697.735 321.668L697.702 321.635C696.07 320.038 694.96 317.974 694.22 315.822V315.811Z" fill="#7BBFBA"/>
<path d="M675.255 298.425C676.213 300.164 675.647 302.315 675.647 302.315C675.647 302.315 673.514 301.653 672.557 299.914C671.599 298.175 672.165 296.024 672.165 296.024C672.165 296.024 674.298 296.687 675.255 298.425Z" fill="#479DA3"/>
<path d="M669.499 302.098C672.231 301.935 674.57 303.924 674.57 303.924C674.57 303.924 672.481 306.162 669.75 306.325C667.019 306.488 664.679 304.5 664.679 304.5C664.679 304.5 666.768 302.261 669.499 302.098Z" fill="#479DA3"/>
<path d="M729.387 337.294C728.407 336.881 727.929 335.794 727.929 335.794C727.929 335.794 729.039 335.37 730.018 335.783C730.997 336.196 731.476 337.283 731.476 337.283C731.476 337.283 730.366 337.707 729.387 337.294Z" fill="#479DA3"/>
<path d="M730.573 333.849C729.485 334.816 727.853 334.762 727.853 334.762C727.853 334.762 727.983 333.132 729.071 332.165C730.159 331.198 731.791 331.252 731.791 331.252C731.791 331.252 731.661 332.882 730.573 333.849Z" fill="#479DA3"/>
<path d="M729.082 276.78C727.689 278.203 725.47 278.279 725.47 278.279C725.47 278.279 725.491 276.052 726.884 274.628C728.277 273.205 730.497 273.129 730.497 273.129C730.497 273.129 730.475 275.356 729.082 276.78Z" fill="#7BBFBA"/>
<path d="M695.526 288.07C696.821 288.559 697.485 289.961 697.485 289.961C697.485 289.961 696.059 290.558 694.764 290.069C693.47 289.58 692.806 288.178 692.806 288.178C692.806 288.178 694.231 287.581 695.526 288.07Z" fill="#7BBFBA"/>
<path d="M723.892 272.346C724.839 274.911 723.609 277.714 723.609 277.714C723.609 277.714 720.856 276.367 719.91 273.802C718.963 271.238 720.193 268.435 720.193 268.435C720.193 268.435 722.945 269.782 723.892 272.346Z" fill="#7BBFBA"/>
<path d="M700.912 342.607C700.412 342.672 699.9 342.683 699.443 342.629C698.758 342.542 698.072 342.249 697.637 341.705C697.267 341.26 697.06 340.543 697.267 339.967C697.572 339.141 698.649 339.337 699.149 338.717C699.421 338.38 699.421 337.891 699.367 337.457C699.313 337.022 699.204 336.577 699.313 336.153C699.421 335.729 699.824 335.338 700.248 335.436C700.575 335.512 700.771 335.816 700.988 336.044C701.119 336.185 701.293 336.305 701.478 336.305C702.283 336.283 702.479 335.088 703.328 335.229C704.209 335.381 704.709 336.316 704.96 337.087C705.395 338.456 705.177 339.945 704.242 341.053C703.404 342.042 702.174 342.433 700.934 342.607H700.912Z" fill="#7BBFBA"/>
<path d="M700.216 371.653C695.385 364.546 689.183 360.58 681.077 362.808C675.723 350.681 659.511 352.658 655.55 365.22C647.956 363.047 641.297 366.306 634.986 371.653H700.226H700.216Z" fill="#7BBFBA"/>
<path d="M297.358 362.112C291.407 343.238 267.034 340.271 258.982 358.494C248.917 355.734 240.822 359.32 234.218 366.643C230.975 362.547 223.272 360.949 217.548 364.285C212.935 349.659 194.057 347.367 187.822 361.482C178.378 358.896 171.164 363.514 165.528 371.783H328.259C318.771 363.753 308.75 358.852 297.347 362.112H297.358Z" fill="#479DA3"/>
<path d="M256.806 371.653C251.975 364.546 245.773 360.58 237.667 362.808C232.314 350.681 216.101 352.658 212.141 365.22C204.546 363.047 197.887 366.306 191.576 371.653H256.817H256.806Z" fill="#7BBFBA"/>
<path d="M289.644 346.084C288.36 347.149 286.489 347.019 286.489 347.019C286.489 347.019 286.706 345.161 287.99 344.096C289.274 343.031 291.145 343.161 291.145 343.161C291.145 343.161 290.928 345.02 289.644 346.084Z" fill="#479DA3"/>
<path d="M285.694 341.912C286.26 344.139 284.976 346.378 284.976 346.378C284.976 346.378 282.789 345.009 282.234 342.781C281.668 340.554 282.952 338.315 282.952 338.315C282.952 338.315 285.139 339.684 285.694 341.912Z" fill="#479DA3"/>
<path d="M205.308 360.765C204.872 362.373 203.262 363.34 203.262 363.34C203.262 363.34 202.37 361.688 202.805 360.08C203.24 358.472 204.851 357.505 204.851 357.505C204.851 357.505 205.743 359.156 205.308 360.765Z" fill="#7BBFBA"/>
<path d="M199.682 359.624C201.423 361.123 201.674 363.688 201.674 363.688C201.674 363.688 199.095 363.818 197.354 362.319C195.613 360.819 195.363 358.255 195.363 358.255C195.363 358.255 197.941 358.124 199.682 359.624Z" fill="#7BBFBA"/>
<path d="M53.3371 371.653C49.6921 366.296 45.0134 363.297 38.8876 364.981C34.8509 355.831 22.6101 357.32 19.6179 366.795C13.8838 365.155 8.8569 367.621 4.09116 371.653H53.3371V371.653Z" fill="#7BBFBA"/>
<path d="M33.012 369.208C33.012 369.208 34.4374 366.426 38.8876 364.981L38.1586 363.579C35.5255 364.861 33.5561 367.024 33.0229 369.208H33.012Z" fill="#479DA3"/>
<path d="M19.6179 366.795C19.6179 366.795 22.3381 368.034 23.4044 369.49C22.523 367.697 21.3588 366.469 20.0096 365.709L19.6179 366.795Z" fill="#479DA3"/>
<path d="M737.145 370.555H0V373H737.145V370.555Z" fill="#133B53"/>
</svg>
