<svg width="359" height="46" viewBox="0 0 359 46" fill="none" xmlns="http://www.w3.org/2000/svg">
<path d="M0 14.0678C0 13.4857 0.312201 12.9483 0.817883 12.66L20.5996 1.38155C21.6799 0.765612 23.0228 1.54576 23.0228 2.78934V19.7497L11.6336 13.1263V45.9999H1.62052C0.725533 45.9999 0 45.2744 0 44.3794V14.0678Z" fill="#111111"/>
<path d="M23.0231 19.7703L33.766 26.2007C34.255 26.4933 34.5543 27.0213 34.5543 27.5911V44.3795C34.5543 45.2745 33.8287 46 32.9338 46H24.6436C23.7486 46 23.0231 45.2745 23.0231 44.3795V19.7703Z" fill="#FF3D3D"/>
<path d="M50.9789 37.6599V15.2599H55.0749V37.6599H50.9789ZM59.3204 37.6599V21.7879H62.9364L63.2564 24.4759C63.7471 23.5372 64.4511 22.7905 65.3684 22.2359C66.3071 21.6812 67.4058 21.4039 68.6644 21.4039C70.6271 21.4039 72.1524 22.0225 73.2404 23.2599C74.3284 24.4972 74.8724 26.3105 74.8724 28.6999V37.6599H70.7764V29.0839C70.7764 27.7185 70.4991 26.6732 69.9444 25.9479C69.3898 25.2225 68.5258 24.8599 67.3524 24.8599C66.2004 24.8599 65.2511 25.2652 64.5044 26.0759C63.7791 26.8865 63.4164 28.0172 63.4164 29.4679V37.6599H59.3204ZM85.8612 37.6599C84.1972 37.6599 82.8638 37.2545 81.8612 36.4439C80.8585 35.6332 80.3572 34.1932 80.3572 32.1239V25.2119H77.6372V21.7879H80.3572L80.8372 17.5319H84.4532V21.7879H88.7412V25.2119H84.4532V32.1559C84.4532 32.9239 84.6132 33.4572 84.9332 33.7559C85.2745 34.0332 85.8505 34.1719 86.6612 34.1719H88.6452V37.6599H85.8612ZM98.2099 38.0439C96.2259 38.0439 94.6899 37.4252 93.6019 36.1879C92.5353 34.9505 92.0019 33.1372 92.0019 30.7479V21.7879H96.0659V30.3639C96.0659 31.7292 96.3433 32.7745 96.8979 33.4999C97.4526 34.2252 98.3273 34.5879 99.5219 34.5879C100.653 34.5879 101.581 34.1825 102.306 33.3719C103.053 32.5612 103.426 31.4305 103.426 29.9799V21.7879H107.522V37.6599H103.906L103.586 34.9719C103.095 35.9105 102.381 36.6572 101.442 37.2119C100.525 37.7665 99.4473 38.0439 98.2099 38.0439ZM111.727 37.6599V21.7879H115.375L115.759 24.7639C116.335 23.7399 117.113 22.9292 118.095 22.3319C119.097 21.7132 120.271 21.4039 121.615 21.4039V25.7239H120.463C119.567 25.7239 118.767 25.8625 118.063 26.1399C117.359 26.4172 116.804 26.8972 116.399 27.5799C116.015 28.2625 115.823 29.2119 115.823 30.4279V37.6599H111.727ZM126.622 19.3239C125.876 19.3239 125.257 19.0999 124.766 18.6519C124.297 18.2039 124.062 17.6385 124.062 16.9559C124.062 16.2732 124.297 15.7185 124.766 15.2919C125.257 14.8439 125.876 14.6199 126.622 14.6199C127.369 14.6199 127.977 14.8439 128.446 15.2919C128.937 15.7185 129.182 16.2732 129.182 16.9559C129.182 17.6385 128.937 18.2039 128.446 18.6519C127.977 19.0999 127.369 19.3239 126.622 19.3239ZM124.574 37.6599V21.7879H128.67V37.6599H124.574Z" fill="#FF3D3D"/>
<path d="M150.81 38.0439C148.549 38.0439 146.608 37.5639 144.986 36.6039C143.365 35.6225 142.117 34.2679 141.242 32.5399C140.368 30.7905 139.93 28.7745 139.93 26.4919C139.93 24.2092 140.368 22.1932 141.242 20.4439C142.117 18.6945 143.365 17.3292 144.986 16.3479C146.608 15.3665 148.549 14.8759 150.81 14.8759C153.498 14.8759 155.696 15.5479 157.402 16.8919C159.13 18.2145 160.208 20.0812 160.634 22.4919H156.122C155.845 21.2759 155.248 20.3265 154.33 19.6439C153.434 18.9399 152.24 18.5879 150.746 18.5879C148.677 18.5879 147.056 19.2919 145.882 20.6999C144.709 22.1079 144.122 24.0385 144.122 26.4919C144.122 28.9452 144.709 30.8759 145.882 32.2839C147.056 33.6705 148.677 34.3639 150.746 34.3639C152.24 34.3639 153.434 34.0439 154.33 33.4039C155.248 32.7425 155.845 31.8359 156.122 30.6839H160.634C160.208 32.9879 159.13 34.7905 157.402 36.0919C155.696 37.3932 153.498 38.0439 150.81 38.0439ZM171.78 38.0439C170.244 38.0439 168.858 37.6919 167.62 36.9879C166.404 36.2839 165.434 35.3132 164.708 34.0759C164.004 32.8172 163.652 31.3665 163.652 29.7239C163.652 28.0812 164.015 26.6412 164.74 25.4039C165.466 24.1452 166.436 23.1639 167.652 22.4599C168.89 21.7559 170.276 21.4039 171.812 21.4039C173.327 21.4039 174.692 21.7559 175.908 22.4599C177.146 23.1639 178.116 24.1452 178.82 25.4039C179.546 26.6412 179.908 28.0812 179.908 29.7239C179.908 31.3665 179.546 32.8172 178.82 34.0759C178.116 35.3132 177.146 36.2839 175.908 36.9879C174.671 37.6919 173.295 38.0439 171.78 38.0439ZM171.78 34.4919C172.847 34.4919 173.775 34.0972 174.564 33.3079C175.354 32.4972 175.748 31.3025 175.748 29.7239C175.748 28.1452 175.354 26.9612 174.564 26.1719C173.775 25.3612 172.858 24.9559 171.812 24.9559C170.724 24.9559 169.786 25.3612 168.996 26.1719C168.228 26.9612 167.844 28.1452 167.844 29.7239C167.844 31.3025 168.228 32.4972 168.996 33.3079C169.786 34.0972 170.714 34.4919 171.78 34.4919ZM183.57 37.6599V21.7879H187.186L187.506 24.4759C187.997 23.5372 188.701 22.7905 189.618 22.2359C190.557 21.6812 191.656 21.4039 192.914 21.4039C194.877 21.4039 196.402 22.0225 197.49 23.2599C198.578 24.4972 199.122 26.3105 199.122 28.6999V37.6599H195.026V29.0839C195.026 27.7185 194.749 26.6732 194.194 25.9479C193.64 25.2225 192.776 24.8599 191.602 24.8599C190.45 24.8599 189.501 25.2652 188.754 26.0759C188.029 26.8865 187.666 28.0172 187.666 29.4679V37.6599H183.57ZM209.599 38.0439C208.191 38.0439 206.954 37.8199 205.887 37.3719C204.821 36.9025 203.967 36.2625 203.327 35.4519C202.687 34.6412 202.303 33.7025 202.175 32.6359H206.303C206.431 33.2545 206.773 33.7879 207.327 34.2359C207.903 34.6625 208.639 34.8759 209.535 34.8759C210.431 34.8759 211.082 34.6945 211.487 34.3319C211.914 33.9692 212.127 33.5532 212.127 33.0839C212.127 32.4012 211.829 31.9425 211.231 31.7079C210.634 31.4519 209.802 31.2065 208.735 30.9719C208.053 30.8225 207.359 30.6412 206.655 30.4279C205.951 30.2145 205.301 29.9479 204.703 29.6279C204.127 29.2865 203.658 28.8599 203.295 28.3479C202.933 27.8145 202.751 27.1639 202.751 26.3959C202.751 24.9879 203.306 23.8039 204.415 22.8439C205.546 21.8839 207.125 21.4039 209.151 21.4039C211.029 21.4039 212.522 21.8412 213.631 22.7159C214.762 23.5905 215.434 24.7959 215.647 26.3319H211.775C211.541 25.1585 210.655 24.5719 209.119 24.5719C208.351 24.5719 207.754 24.7212 207.327 25.0199C206.922 25.3185 206.719 25.6919 206.719 26.1399C206.719 26.6092 207.029 26.9825 207.647 27.2599C208.266 27.5372 209.087 27.7932 210.111 28.0279C211.221 28.2839 212.234 28.5719 213.151 28.8919C214.09 29.1905 214.837 29.6492 215.391 30.2679C215.946 30.8652 216.223 31.7292 216.223 32.8599C216.245 33.8412 215.989 34.7265 215.455 35.5159C214.922 36.3052 214.154 36.9239 213.151 37.3719C212.149 37.8199 210.965 38.0439 209.599 38.0439ZM226.424 37.6599C224.76 37.6599 223.426 37.2545 222.424 36.4439C221.421 35.6332 220.92 34.1932 220.92 32.1239V25.2119H218.2V21.7879H220.92L221.4 17.5319H225.016V21.7879H229.304V25.2119H225.016V32.1559C225.016 32.9239 225.176 33.4572 225.496 33.7559C225.837 34.0332 226.413 34.1719 227.224 34.1719H229.208V37.6599H226.424ZM232.82 37.6599V21.7879H236.468L236.852 24.7639C237.428 23.7399 238.207 22.9292 239.188 22.3319C240.191 21.7132 241.364 21.4039 242.708 21.4039V25.7239H241.556C240.66 25.7239 239.86 25.8625 239.156 26.1399C238.452 26.4172 237.898 26.8972 237.492 27.5799C237.108 28.2625 236.916 29.2119 236.916 30.4279V37.6599H232.82ZM251.46 38.0439C249.476 38.0439 247.94 37.4252 246.852 36.1879C245.785 34.9505 245.252 33.1372 245.252 30.7479V21.7879H249.316V30.3639C249.316 31.7292 249.593 32.7745 250.148 33.4999C250.703 34.2252 251.577 34.5879 252.772 34.5879C253.903 34.5879 254.831 34.1825 255.556 33.3719C256.303 32.5612 256.676 31.4305 256.676 29.9799V21.7879H260.772V37.6599H257.156L256.836 34.9719C256.345 35.9105 255.631 36.6572 254.692 37.2119C253.775 37.7665 252.697 38.0439 251.46 38.0439ZM272.753 38.0439C271.131 38.0439 269.702 37.6919 268.465 36.9879C267.227 36.2839 266.246 35.3025 265.521 34.0439C264.817 32.7852 264.465 31.3452 264.465 29.7239C264.465 28.1025 264.817 26.6625 265.521 25.4039C266.246 24.1452 267.227 23.1639 268.465 22.4599C269.702 21.7559 271.131 21.4039 272.753 21.4039C274.779 21.4039 276.486 21.9372 277.873 23.0039C279.259 24.0492 280.145 25.4999 280.529 27.3559H276.209C275.995 26.5879 275.569 25.9905 274.929 25.5639C274.31 25.1159 273.574 24.8919 272.721 24.8919C271.59 24.8919 270.63 25.3185 269.841 26.1719C269.051 27.0252 268.657 28.2092 268.657 29.7239C268.657 31.2385 269.051 32.4225 269.841 33.2759C270.63 34.1292 271.59 34.5559 272.721 34.5559C273.574 34.5559 274.31 34.3425 274.929 33.9159C275.569 33.4892 275.995 32.8812 276.209 32.0919H280.529C280.145 33.8839 279.259 35.3239 277.873 36.4119C276.486 37.4999 274.779 38.0439 272.753 38.0439ZM291.017 37.6599C289.353 37.6599 288.02 37.2545 287.017 36.4439C286.015 35.6332 285.513 34.1932 285.513 32.1239V25.2119H282.793V21.7879H285.513L285.993 17.5319H289.609V21.7879H293.897V25.2119H289.609V32.1559C289.609 32.9239 289.769 33.4572 290.089 33.7559C290.431 34.0332 291.007 34.1719 291.817 34.1719H293.801V37.6599H291.017ZM299.622 19.3239C298.876 19.3239 298.257 19.0999 297.766 18.6519C297.297 18.2039 297.062 17.6385 297.062 16.9559C297.062 16.2732 297.297 15.7185 297.766 15.2919C298.257 14.8439 298.876 14.6199 299.622 14.6199C300.369 14.6199 300.977 14.8439 301.446 15.2919C301.937 15.7185 302.182 16.2732 302.182 16.9559C302.182 17.6385 301.937 18.2039 301.446 18.6519C300.977 19.0999 300.369 19.3239 299.622 19.3239ZM297.574 37.6599V21.7879H301.67V37.6599H297.574ZM313.561 38.0439C312.025 38.0439 310.639 37.6919 309.401 36.9879C308.185 36.2839 307.215 35.3132 306.489 34.0759C305.785 32.8172 305.433 31.3665 305.433 29.7239C305.433 28.0812 305.796 26.6412 306.521 25.4039C307.247 24.1452 308.217 23.1639 309.433 22.4599C310.671 21.7559 312.057 21.4039 313.593 21.4039C315.108 21.4039 316.473 21.7559 317.689 22.4599C318.927 23.1639 319.897 24.1452 320.601 25.4039C321.327 26.6412 321.689 28.0812 321.689 29.7239C321.689 31.3665 321.327 32.8172 320.601 34.0759C319.897 35.3132 318.927 36.2839 317.689 36.9879C316.452 37.6919 315.076 38.0439 313.561 38.0439ZM313.561 34.4919C314.628 34.4919 315.556 34.0972 316.345 33.3079C317.135 32.4972 317.529 31.3025 317.529 29.7239C317.529 28.1452 317.135 26.9612 316.345 26.1719C315.556 25.3612 314.639 24.9559 313.593 24.9559C312.505 24.9559 311.567 25.3612 310.777 26.1719C310.009 26.9612 309.625 28.1452 309.625 29.7239C309.625 31.3025 310.009 32.4972 310.777 33.3079C311.567 34.0972 312.495 34.4919 313.561 34.4919ZM325.352 37.6599V21.7879H328.968L329.288 24.4759C329.778 23.5372 330.482 22.7905 331.4 22.2359C332.338 21.6812 333.437 21.4039 334.696 21.4039C336.658 21.4039 338.184 22.0225 339.272 23.2599C340.36 24.4972 340.904 26.3105 340.904 28.6999V37.6599H336.808V29.0839C336.808 27.7185 336.53 26.6732 335.976 25.9479C335.421 25.2225 334.557 24.8599 333.384 24.8599C332.232 24.8599 331.282 25.2652 330.536 26.0759C329.81 26.8865 329.448 28.0172 329.448 29.4679V37.6599H325.352ZM351.38 38.0439C349.972 38.0439 348.735 37.8199 347.668 37.3719C346.602 36.9025 345.748 36.2625 345.108 35.4519C344.468 34.6412 344.084 33.7025 343.956 32.6359H348.084C348.212 33.2545 348.554 33.7879 349.108 34.2359C349.684 34.6625 350.42 34.8759 351.316 34.8759C352.212 34.8759 352.863 34.6945 353.268 34.3319C353.695 33.9692 353.908 33.5532 353.908 33.0839C353.908 32.4012 353.61 31.9425 353.012 31.7079C352.415 31.4519 351.583 31.2065 350.516 30.9719C349.834 30.8225 349.14 30.6412 348.436 30.4279C347.732 30.2145 347.082 29.9479 346.484 29.6279C345.908 29.2865 345.439 28.8599 345.076 28.3479C344.714 27.8145 344.532 27.1639 344.532 26.3959C344.532 24.9879 345.087 23.8039 346.196 22.8439C347.327 21.8839 348.906 21.4039 350.932 21.4039C352.81 21.4039 354.303 21.8412 355.412 22.7159C356.543 23.5905 357.215 24.7959 357.428 26.3319H353.556C353.322 25.1585 352.436 24.5719 350.9 24.5719C350.132 24.5719 349.535 24.7212 349.108 25.0199C348.703 25.3185 348.5 25.6919 348.5 26.1399C348.5 26.6092 348.81 26.9825 349.428 27.2599C350.047 27.5372 350.868 27.7932 351.892 28.0279C353.002 28.2839 354.015 28.5719 354.932 28.8919C355.871 29.1905 356.618 29.6492 357.172 30.2679C357.727 30.8652 358.004 31.7292 358.004 32.8599C358.026 33.8412 357.77 34.7265 357.236 35.5159C356.703 36.3052 355.935 36.9239 354.932 37.3719C353.93 37.8199 352.746 38.0439 351.38 38.0439Z" fill="#111111"/>
</svg>
